<?xml version="1.0" encoding="UTF-8" standalone="no"?>
<!DOCTYPE svg PUBLIC "-//W3C//DTD SVG 1.1//EN"
 "http://www.w3.org/Graphics/SVG/1.1/DTD/svg11.dtd">
<!-- Generated by graphviz version 2.43.0 (0)
 -->
<!-- Title: _60391536 Pages: 1 -->
<svg width="3264pt" height="495pt"
 viewBox="0.00 0.00 3264.47 495.00" xmlns="http://www.w3.org/2000/svg" xmlns:xlink="http://www.w3.org/1999/xlink">
<g id="graph0" class="graph" transform="scale(1 1) rotate(0) translate(4 491)">
<title>_60391536</title>
<polygon fill="white" stroke="transparent" points="-4,4 -4,-491 3260.47,-491 3260.47,4 -4,4"/>
<g id="clust1" class="cluster">
<title>cluster60391536diagram</title>
<polygon fill="none" stroke="black" points="8,-8 8,-479 3248.47,-479 3248.47,-8 8,-8"/>
<text text-anchor="middle" x="1628.24" y="-463.8" font-family="Times,serif" font-size="14.00">60391536</text>
</g>
<g id="clust2" class="cluster">
<title>cluster60391536inputports</title>
<polygon fill="lightgrey" stroke="lightgrey" points="16,-223 16,-298 111.29,-298 111.29,-223 16,-223"/>
<text text-anchor="middle" x="63.65" y="-282.8" font-family="Times,serif" font-size="14.00">input ports</text>
</g>
<g id="clust4" class="cluster">
<title>cluster60391536subsystems</title>
<polygon fill="none" stroke="white" points="127.29,-16 127.29,-448 3240.47,-448 3240.47,-16 127.29,-16"/>
</g>
<g id="clust5" class="cluster">
<title>cluster59906448diagram</title>
<polygon fill="none" stroke="black" points="135.29,-126 135.29,-383 1865.47,-383 1865.47,-126 135.29,-126"/>
<text text-anchor="middle" x="1000.38" y="-367.8" font-family="Times,serif" font-size="14.00">inverse dynamics controller</text>
</g>
<g id="clust6" class="cluster">
<title>cluster59906448inputports</title>
<polygon fill="lightgrey" stroke="lightgrey" points="143.29,-223 143.29,-352 329.58,-352 329.58,-223 143.29,-223"/>
<text text-anchor="middle" x="236.44" y="-336.8" font-family="Times,serif" font-size="14.00">input ports</text>
</g>
<g id="clust7" class="cluster">
<title>cluster59906448outputports</title>
<polygon fill="lightgrey" stroke="lightgrey" points="1751.58,-143 1751.58,-218 1857.47,-218 1857.47,-143 1751.58,-143"/>
<text text-anchor="middle" x="1804.52" y="-202.8" font-family="Times,serif" font-size="14.00">output ports</text>
</g>
<g id="clust8" class="cluster">
<title>cluster59906448subsystems</title>
<polygon fill="none" stroke="white" points="349.58,-146 349.58,-352 1707.58,-352 1707.58,-146 349.58,-146"/>
</g>
<!-- _60391536_u0 -->
<g id="node1" class="node">
<title>_60391536_u0</title>
<ellipse fill="none" stroke="blue" cx="63.65" cy="-249" rx="39.79" ry="18"/>
<text text-anchor="middle" x="63.65" y="-245.3" font-family="Times,serif" font-size="14.00">target</text>
</g>
<!-- _59906448_u1 -->
<g id="node5" class="node">
<title>_59906448_u1</title>
<ellipse fill="none" stroke="blue" cx="236.44" cy="-249" rx="73.39" ry="18"/>
<text text-anchor="middle" x="236.44" y="-245.3" font-family="Times,serif" font-size="14.00">desired_state</text>
</g>
<!-- _60391536_u0&#45;&gt;_59906448_u1 -->
<g id="edge15" class="edge">
<title>_60391536_u0&#45;&gt;_59906448_u1</title>
<path fill="none" stroke="blue" d="M103.4,-249C118.13,-249 135.52,-249 152.77,-249"/>
<polygon fill="blue" stroke="blue" points="152.89,-252.5 162.89,-249 152.89,-245.5 152.89,-252.5"/>
</g>
<!-- 59706528 -->
<g id="node2" class="node">
<title>59706528</title>
<polygon fill="none" stroke="black" points="1901.47,-25 1901.47,-439 2523.47,-439 2523.47,-25 1901.47,-25"/>
<text text-anchor="middle" x="2212.47" y="-423.8" font-family="Times,serif" font-size="14.00">plant</text>
<polyline fill="none" stroke="black" points="1901.47,-416 2523.47,-416 "/>
<text text-anchor="middle" x="2025.47" y="-384.8" font-family="Times,serif" font-size="14.00">geometry_query</text>
<polyline fill="none" stroke="black" points="1901.47,-361 2149.47,-361 "/>
<text text-anchor="middle" x="2025.47" y="-329.3" font-family="Times,serif" font-size="14.00">WorldModelInstance_actuation</text>
<polyline fill="none" stroke="black" points="1901.47,-305 2149.47,-305 "/>
<text text-anchor="middle" x="2025.47" y="-273.3" font-family="Times,serif" font-size="14.00">DefaultModelInstance_actuation</text>
<polyline fill="none" stroke="black" points="1901.47,-249 2149.47,-249 "/>
<text text-anchor="middle" x="2025.47" y="-217.3" font-family="Times,serif" font-size="14.00">CartPoleBSA_actuation</text>
<polyline fill="none" stroke="black" points="1901.47,-193 2149.47,-193 "/>
<text text-anchor="middle" x="2025.47" y="-161.3" font-family="Times,serif" font-size="14.00">actuation</text>
<polyline fill="none" stroke="black" points="1901.47,-137 2149.47,-137 "/>
<text text-anchor="middle" x="2025.47" y="-105.3" font-family="Times,serif" font-size="14.00">applied_generalized_force</text>
<polyline fill="none" stroke="black" points="1901.47,-81 2149.47,-81 "/>
<text text-anchor="middle" x="2025.47" y="-49.8" font-family="Times,serif" font-size="14.00">applied_spatial_force</text>
<polyline fill="none" stroke="black" points="2149.47,-25 2149.47,-416 "/>
<text text-anchor="middle" x="2336.47" y="-400.8" font-family="Times,serif" font-size="14.00">geometry_pose</text>
<polyline fill="none" stroke="black" points="2149.47,-393 2523.47,-393 "/>
<text text-anchor="middle" x="2336.47" y="-377.8" font-family="Times,serif" font-size="14.00">continuous_state</text>
<polyline fill="none" stroke="black" points="2149.47,-370 2523.47,-370 "/>
<text text-anchor="middle" x="2336.47" y="-354.8" font-family="Times,serif" font-size="14.00">body_poses</text>
<polyline fill="none" stroke="black" points="2149.47,-347 2523.47,-347 "/>
<text text-anchor="middle" x="2336.47" y="-331.8" font-family="Times,serif" font-size="14.00">spatial_velocities</text>
<polyline fill="none" stroke="black" points="2149.47,-324 2523.47,-324 "/>
<text text-anchor="middle" x="2336.47" y="-308.8" font-family="Times,serif" font-size="14.00">spatial_accelerations</text>
<polyline fill="none" stroke="black" points="2149.47,-301 2523.47,-301 "/>
<text text-anchor="middle" x="2336.47" y="-285.8" font-family="Times,serif" font-size="14.00">generalized_acceleration</text>
<polyline fill="none" stroke="black" points="2149.47,-278 2523.47,-278 "/>
<text text-anchor="middle" x="2336.47" y="-262.8" font-family="Times,serif" font-size="14.00">WorldModelInstance_continuous_state</text>
<polyline fill="none" stroke="black" points="2149.47,-255 2523.47,-255 "/>
<text text-anchor="middle" x="2336.47" y="-239.8" font-family="Times,serif" font-size="14.00">WorldModelInstance_generalized_acceleration</text>
<polyline fill="none" stroke="black" points="2149.47,-232 2523.47,-232 "/>
<text text-anchor="middle" x="2336.47" y="-216.8" font-family="Times,serif" font-size="14.00">DefaultModelInstance_continuous_state</text>
<polyline fill="none" stroke="black" points="2149.47,-209 2523.47,-209 "/>
<text text-anchor="middle" x="2336.47" y="-193.8" font-family="Times,serif" font-size="14.00">DefaultModelInstance_generalized_acceleration</text>
<polyline fill="none" stroke="black" points="2149.47,-186 2523.47,-186 "/>
<text text-anchor="middle" x="2336.47" y="-170.8" font-family="Times,serif" font-size="14.00">CartPoleBSA_continuous_state</text>
<polyline fill="none" stroke="black" points="2149.47,-163 2523.47,-163 "/>
<text text-anchor="middle" x="2336.47" y="-147.8" font-family="Times,serif" font-size="14.00">CartPoleBSA_generalized_acceleration</text>
<polyline fill="none" stroke="black" points="2149.47,-140 2523.47,-140 "/>
<text text-anchor="middle" x="2336.47" y="-124.8" font-family="Times,serif" font-size="14.00">WorldModelInstance_generalized_contact_forces</text>
<polyline fill="none" stroke="black" points="2149.47,-117 2523.47,-117 "/>
<text text-anchor="middle" x="2336.47" y="-101.8" font-family="Times,serif" font-size="14.00">DefaultModelInstance_generalized_contact_forces</text>
<polyline fill="none" stroke="black" points="2149.47,-94 2523.47,-94 "/>
<text text-anchor="middle" x="2336.47" y="-78.8" font-family="Times,serif" font-size="14.00">CartPoleBSA_generalized_contact_forces</text>
<polyline fill="none" stroke="black" points="2149.47,-71 2523.47,-71 "/>
<text text-anchor="middle" x="2336.47" y="-55.8" font-family="Times,serif" font-size="14.00">reaction_forces</text>
<polyline fill="none" stroke="black" points="2149.47,-48 2523.47,-48 "/>
<text text-anchor="middle" x="2336.47" y="-32.8" font-family="Times,serif" font-size="14.00">contact_results</text>
</g>
<!-- 63170384 -->
<g id="node3" class="node">
<title>63170384</title>
<polygon fill="none" stroke="black" points="2559.47,-370.5 2559.47,-439.5 2772.47,-439.5 2772.47,-370.5 2559.47,-370.5"/>
<text text-anchor="middle" x="2665.97" y="-424.3" font-family="Times,serif" font-size="14.00">scene_graph</text>
<polyline fill="none" stroke="black" points="2559.47,-416.5 2772.47,-416.5 "/>
<text text-anchor="middle" x="2636.97" y="-401.3" font-family="Times,serif" font-size="14.00">plant_pose</text>
<polyline fill="none" stroke="black" points="2559.47,-393.5 2714.47,-393.5 "/>
<text text-anchor="middle" x="2636.97" y="-378.3" font-family="Times,serif" font-size="14.00">plant_configuration</text>
<polyline fill="none" stroke="black" points="2714.47,-370.5 2714.47,-416.5 "/>
<text text-anchor="middle" x="2743.47" y="-389.8" font-family="Times,serif" font-size="14.00">query</text>
</g>
<!-- 59706528&#45;&gt;63170384 -->
<g id="edge14" class="edge">
<title>59706528:y0&#45;&gt;63170384:u0</title>
<path fill="none" stroke="black" d="M2523.47,-405C2535.47,-405 2540.72,-405 2549.35,-405"/>
<polygon fill="black" stroke="black" points="2549.47,-408.5 2559.47,-405 2549.47,-401.5 2549.47,-408.5"/>
</g>
<!-- _59906448_u0 -->
<g id="node4" class="node">
<title>_59906448_u0</title>
<ellipse fill="none" stroke="blue" cx="236.44" cy="-303" rx="85.29" ry="18"/>
<text text-anchor="middle" x="236.44" y="-299.3" font-family="Times,serif" font-size="14.00">estimated_state</text>
</g>
<!-- 59706528&#45;&gt;_59906448_u0 -->
<g id="edge11" class="edge">
<title>59706528:y1&#45;&gt;_59906448_u0</title>
<path fill="none" stroke="black" d="M2524.47,-382C2550.03,-382 2541.7,-421.58 2523.47,-439.5 2424.89,-536.38 2039.36,-449.04 1901.47,-439.5 1703.43,-425.8 1657.59,-378 1459.08,-378 1016.58,-378 1016.58,-378 1016.58,-378 719.97,-378 637.88,-425.71 349.58,-356 323.14,-349.61 295.49,-336.62 274.26,-325.1"/>
<polygon fill="black" stroke="black" points="275.73,-321.91 265.28,-320.11 272.32,-328.03 275.73,-321.91"/>
</g>
<!-- 57090944 -->
<g id="node12" class="node">
<title>57090944</title>
<polygon fill="none" stroke="black" points="2631.47,-305 2631.47,-351 2700.47,-351 2700.47,-305 2631.47,-305"/>
<text text-anchor="middle" x="2665.97" y="-335.8" font-family="Times,serif" font-size="14.00">logger</text>
<polyline fill="none" stroke="black" points="2631.47,-328 2700.47,-328 "/>
<text text-anchor="middle" x="2655.47" y="-312.8" font-family="Times,serif" font-size="14.00">data</text>
<polyline fill="none" stroke="black" points="2679.47,-305 2679.47,-328 "/>
<text text-anchor="middle" x="2689.97" y="-312.8" font-family="Times,serif" font-size="14.00"> </text>
</g>
<!-- 59706528&#45;&gt;57090944 -->
<g id="edge8" class="edge">
<title>59706528:y1&#45;&gt;57090944:u0</title>
<path fill="none" stroke="black" d="M2523.47,-382C2529.32,-382 2595.55,-335.45 2620.74,-320.54"/>
<polygon fill="black" stroke="black" points="2622.54,-323.55 2629.97,-316 2619.45,-317.27 2622.54,-323.55"/>
</g>
<!-- 63170384&#45;&gt;59706528 -->
<g id="edge9" class="edge">
<title>63170384:y0&#45;&gt;59706528:u0</title>
<path fill="none" stroke="black" d="M2743.97,-369C2743.97,-358.75 2568.21,-364.65 2559.47,-370 2529.8,-388.16 2553.19,-421.42 2523.47,-439.5 2464.42,-475.41 1950.82,-487.88 1901.47,-439.5 1888.45,-426.73 1881.11,-401.37 1890.85,-392.31"/>
<polygon fill="black" stroke="black" points="1892.16,-395.57 1900.47,-389 1889.88,-388.95 1892.16,-395.57"/>
</g>
<!-- 60390224 -->
<g id="node13" class="node">
<title>60390224</title>
<polygon fill="none" stroke="black" points="2808.47,-323 2808.47,-369 3232.47,-369 3232.47,-323 2808.47,-323"/>
<text text-anchor="middle" x="3020.47" y="-353.8" font-family="Times,serif" font-size="14.00">drake/geometry/MeshcatVisualizer@0000000003997b50</text>
<polyline fill="none" stroke="black" points="2808.47,-346 3232.47,-346 "/>
<text text-anchor="middle" x="2935.97" y="-330.8" font-family="Times,serif" font-size="14.00">query_object</text>
<polyline fill="none" stroke="black" points="3063.47,-323 3063.47,-346 "/>
<text text-anchor="middle" x="3147.97" y="-330.8" font-family="Times,serif" font-size="14.00"> </text>
</g>
<!-- 63170384&#45;&gt;60390224 -->
<g id="edge13" class="edge">
<title>63170384:y0&#45;&gt;60390224:u0</title>
<path fill="none" stroke="black" d="M2772.47,-393C2798.87,-393 2783.8,-349.43 2798.53,-337.17"/>
<polygon fill="black" stroke="black" points="2800.01,-340.37 2808.47,-334 2797.88,-333.71 2800.01,-340.37"/>
</g>
<!-- 60054992 -->
<g id="node14" class="node">
<title>60054992</title>
<polygon fill="none" stroke="black" points="2808.47,-388 2808.47,-434 3232.47,-434 3232.47,-388 2808.47,-388"/>
<text text-anchor="middle" x="3020.47" y="-418.8" font-family="Times,serif" font-size="14.00">drake/geometry/MeshcatVisualizer@0000000003945dd0</text>
<polyline fill="none" stroke="black" points="2808.47,-411 3232.47,-411 "/>
<text text-anchor="middle" x="2935.97" y="-395.8" font-family="Times,serif" font-size="14.00">query_object</text>
<polyline fill="none" stroke="black" points="3063.47,-388 3063.47,-411 "/>
<text text-anchor="middle" x="3147.97" y="-395.8" font-family="Times,serif" font-size="14.00"> </text>
</g>
<!-- 63170384&#45;&gt;60054992 -->
<g id="edge12" class="edge">
<title>63170384:y0&#45;&gt;60054992:u0</title>
<path fill="none" stroke="black" d="M2772.47,-393C2784.64,-393 2789.68,-396.38 2798.28,-398.06"/>
<polygon fill="black" stroke="black" points="2798.19,-401.57 2808.47,-399 2798.83,-394.6 2798.19,-401.57"/>
</g>
<!-- 59702224 -->
<g id="node7" class="node">
<title>59702224</title>
<polygon fill="none" stroke="black" points="1216.58,-154.5 1216.58,-223.5 1699.58,-223.5 1699.58,-154.5 1216.58,-154.5"/>
<text text-anchor="middle" x="1458.08" y="-208.3" font-family="Times,serif" font-size="14.00">drake/systems/controllers/InverseDynamics@00000000038efbd0</text>
<polyline fill="none" stroke="black" points="1216.58,-200.5 1699.58,-200.5 "/>
<text text-anchor="middle" x="1337.58" y="-185.3" font-family="Times,serif" font-size="14.00">u0</text>
<polyline fill="none" stroke="black" points="1216.58,-177.5 1458.58,-177.5 "/>
<text text-anchor="middle" x="1337.58" y="-162.3" font-family="Times,serif" font-size="14.00">u1</text>
<polyline fill="none" stroke="black" points="1458.58,-154.5 1458.58,-200.5 "/>
<text text-anchor="middle" x="1579.08" y="-173.8" font-family="Times,serif" font-size="14.00">y0</text>
</g>
<!-- _59906448_u0&#45;&gt;59702224 -->
<g id="edge4" class="edge">
<title>_59906448_u0&#45;&gt;59702224:u0</title>
<path fill="none" stroke="blue" d="M306.11,-292.59C315,-288.64 323.21,-283.28 329.58,-276 368.35,-231.67 304.9,-183.38 349.58,-145 639.69,104.18 827.43,-183.85 1206.45,-188.93"/>
<polygon fill="blue" stroke="blue" points="1206.55,-192.43 1216.58,-189 1206.6,-185.43 1206.55,-192.43"/>
</g>
<!-- 59890544 -->
<g id="node8" class="node">
<title>59890544</title>
<polygon fill="none" stroke="black" points="357.58,-274.5 357.58,-343.5 818.58,-343.5 818.58,-274.5 357.58,-274.5"/>
<text text-anchor="middle" x="588.08" y="-328.3" font-family="Times,serif" font-size="14.00">drake/systems/controllers/PidController@000000000391db70</text>
<polyline fill="none" stroke="black" points="357.58,-320.5 818.58,-320.5 "/>
<text text-anchor="middle" x="476.58" y="-305.3" font-family="Times,serif" font-size="14.00">x</text>
<polyline fill="none" stroke="black" points="357.58,-297.5 595.58,-297.5 "/>
<text text-anchor="middle" x="476.58" y="-282.3" font-family="Times,serif" font-size="14.00">x_d</text>
<polyline fill="none" stroke="black" points="595.58,-274.5 595.58,-320.5 "/>
<text text-anchor="middle" x="707.08" y="-293.8" font-family="Times,serif" font-size="14.00">y</text>
</g>
<!-- _59906448_u0&#45;&gt;59890544 -->
<g id="edge5" class="edge">
<title>_59906448_u0&#45;&gt;59890544:u0</title>
<path fill="none" stroke="blue" d="M318.14,-308.18C327.36,-308.54 336.73,-308.81 345.87,-308.93"/>
<polygon fill="blue" stroke="blue" points="346.05,-312.43 356.08,-309 346.1,-305.43 346.05,-312.43"/>
</g>
<!-- _59906448_u1&#45;&gt;59890544 -->
<g id="edge6" class="edge">
<title>_59906448_u1&#45;&gt;59890544:u1</title>
<path fill="none" stroke="blue" d="M285.95,-262.47C300.09,-266.59 315.51,-271.29 329.58,-276 337.41,-278.62 340.96,-282.11 346.02,-284.2"/>
<polygon fill="blue" stroke="blue" points="345.62,-287.68 356.08,-286 346.85,-280.79 345.62,-287.68"/>
</g>
<!-- _59906448_y0 -->
<g id="node6" class="node">
<title>_59906448_y0</title>
<ellipse fill="none" stroke="green" cx="1804.02" cy="-169" rx="34.39" ry="18"/>
<text text-anchor="middle" x="1804.02" y="-165.3" font-family="Times,serif" font-size="14.00">force</text>
</g>
<!-- _59906448_y0&#45;&gt;59706528 -->
<g id="edge10" class="edge">
<title>_59906448_y0&#45;&gt;59706528:u4</title>
<path fill="none" stroke="black" d="M1838.49,-166.93C1854.07,-166.11 1873.13,-165.31 1891.24,-165.07"/>
<polygon fill="black" stroke="black" points="1891.5,-168.57 1901.47,-165 1891.45,-161.57 1891.5,-168.57"/>
</g>
<!-- 59702224&#45;&gt;_59906448_y0 -->
<g id="edge7" class="edge">
<title>59702224:y0&#45;&gt;_59906448_y0</title>
<path fill="none" stroke="green" d="M1701.08,-177C1720.46,-177 1741.85,-175.54 1760.02,-173.88"/>
<polygon fill="green" stroke="green" points="1760.4,-177.35 1770.02,-172.91 1759.73,-170.39 1760.4,-177.35"/>
</g>
<!-- 60377392 -->
<g id="node9" class="node">
<title>60377392</title>
<polygon fill="none" stroke="black" points="854.58,-208.5 854.58,-277.5 1180.58,-277.5 1180.58,-208.5 854.58,-208.5"/>
<text text-anchor="middle" x="1017.58" y="-262.3" font-family="Times,serif" font-size="14.00">drake/systems/Adder@0000000003994930</text>
<polyline fill="none" stroke="black" points="854.58,-254.5 1180.58,-254.5 "/>
<text text-anchor="middle" x="933.08" y="-239.3" font-family="Times,serif" font-size="14.00">u0</text>
<polyline fill="none" stroke="black" points="854.58,-231.5 1011.58,-231.5 "/>
<text text-anchor="middle" x="933.08" y="-216.3" font-family="Times,serif" font-size="14.00">u1</text>
<polyline fill="none" stroke="black" points="1011.58,-208.5 1011.58,-254.5 "/>
<text text-anchor="middle" x="1096.08" y="-227.8" font-family="Times,serif" font-size="14.00">sum</text>
</g>
<!-- 59890544&#45;&gt;60377392 -->
<g id="edge2" class="edge">
<title>59890544:y0&#45;&gt;60377392:u0</title>
<path fill="none" stroke="black" d="M818.58,-297C843.14,-297 831.06,-257.84 844.74,-246.22"/>
<polygon fill="black" stroke="black" points="846.16,-249.43 854.58,-243 843.99,-242.78 846.16,-249.43"/>
</g>
<!-- 60377392&#45;&gt;59702224 -->
<g id="edge1" class="edge">
<title>60377392:y0&#45;&gt;59702224:u1</title>
<path fill="none" stroke="black" d="M1180.58,-231C1209.47,-231 1190.08,-181.23 1206.9,-168.79"/>
<polygon fill="black" stroke="black" points="1207.94,-172.14 1216.58,-166 1206,-165.41 1207.94,-172.14"/>
</g>
<!-- 59492528 -->
<g id="node10" class="node">
<title>59492528</title>
<polygon fill="none" stroke="black" points="367.58,-209 367.58,-255 808.58,-255 808.58,-209 367.58,-209"/>
<text text-anchor="middle" x="588.08" y="-239.8" font-family="Times,serif" font-size="14.00">drake/systems/ConstantVectorSource@00000000038bc8b0</text>
<polyline fill="none" stroke="black" points="367.58,-232 808.58,-232 "/>
<text text-anchor="middle" x="474.58" y="-216.8" font-family="Times,serif" font-size="14.00"> </text>
<polyline fill="none" stroke="black" points="581.58,-209 581.58,-232 "/>
<text text-anchor="middle" x="695.08" y="-216.8" font-family="Times,serif" font-size="14.00">y0</text>
</g>
<!-- 59492528&#45;&gt;60377392 -->
<g id="edge3" class="edge">
<title>59492528:y0&#45;&gt;60377392:u1</title>
<path fill="none" stroke="black" d="M810.08,-220C825.99,-220 832.3,-220 844.47,-220"/>
<polygon fill="black" stroke="black" points="844.58,-223.5 854.58,-220 844.58,-216.5 844.58,-223.5"/>
</g>
<!-- \n -->
<g id="node11" class="node">
<title>\n</title>
<ellipse fill="none" stroke="black" cx="588.08" cy="-172" rx="27" ry="18"/>
</g>
</g>
</svg>
